STARTFONT 2.3
FONT -FontForge-Zen Loop-Book-R-Normal--18-180-72-72-P-57-ISO10646-1
SIZE 18 72 72  4
FONTBOUNDINGBOX 16 21 -2 -5
COMMENT "Generated by fontforge, http://fontforge.sourceforge.net"
COMMENT "Copyright 2021 The Zen-Loop Project Authors (https://github.com/googlefonts/zen-loop)"
STARTPROPERTIES 40
FOUNDRY "FontForge"
FAMILY_NAME "Zen Loop"
WEIGHT_NAME "Book"
SLANT "R"
SETWIDTH_NAME "Normal"
ADD_STYLE_NAME ""
PIXEL_SIZE 18
POINT_SIZE 180
RESOLUTION_X 72
RESOLUTION_Y 72
SPACING "P"
AVERAGE_WIDTH 57
CHARSET_REGISTRY "ISO10646"
CHARSET_ENCODING "1"
FONTNAME_REGISTRY ""
CHARSET_COLLECTIONS "ISO10646-1"
BITS_PER_PIXEL 4
FONT_NAME "ZenLoop-Regular"
FACE_NAME "Zen Loop Regular"
COPYRIGHT "Copyright 2021 The Zen-Loop Project Authors (https://github.com/googlefonts/zen-loop)"
FONT_VERSION "1.000; ttfautohint (v1.8.3)"
FONT_ASCENT 14
FONT_DESCENT 4
UNDERLINE_POSITION -3
UNDERLINE_THICKNESS 1
X_HEIGHT 8
CAP_HEIGHT 12
RAW_ASCENT 800
RAW_DESCENT 200
NORM_SPACE 4
RELATIVE_WEIGHT 40
RELATIVE_SETWIDTH 50
SUPERSCRIPT_X 0
SUPERSCRIPT_Y 6
SUPERSCRIPT_SIZE 10
SUBSCRIPT_X 0
SUBSCRIPT_Y 1
SUBSCRIPT_SIZE 10
AVG_LOWERCASE_WIDTH 53
AVG_UPPERCASE_WIDTH 69
ENDPROPERTIES
CHARS 248
STARTCHAR CR
ENCODING 13
SWIDTH 600 0
DWIDTH 11 0
BBX 1 1 0 0
BITMAP
00
ENDCHAR
STARTCHAR space
ENCODING 32
SWIDTH 240 0
DWIDTH 4 0
BBX 1 1 0 0
BITMAP
00
ENDCHAR
STARTCHAR exclam
ENCODING 33
SWIDTH 141 0
DWIDTH 3 0
BBX 1 13 1 0
BITMAP
50
60
60
60
60
60
60
60
60
30
00
40
50
ENDCHAR
STARTCHAR quotedbl
ENCODING 34
SWIDTH 195 0
DWIDTH 4 0
BBX 3 4 0 9
BITMAP
1450
1460
1460
1230
ENDCHAR
STARTCHAR numbersign
ENCODING 35
SWIDTH 454 0
DWIDTH 8 0
BBX 8 13 0 0
BITMAP
00050050
00060060
00060060
00240140
05976975
00600600
00600600
00600600
37966960
03302400
05104100
06006000
05005000
ENDCHAR
STARTCHAR dollar
ENCODING 36
SWIDTH 356 0
DWIDTH 6 0
BBX 6 17 0 -2
BITMAP
000200
001500
047960
071525
331500
241500
071500
027500
003900
001670
001526
001506
501506
331506
057861
001500
001400
ENDCHAR
STARTCHAR percent
ENCODING 37
SWIDTH 470 0
DWIDTH 8 0
BBX 8 13 0 0
BITMAP
06650020
15060060
42042330
33041600
06061500
03636100
00006000
00042560
00066115
00246006
00606006
00606005
04101771
ENDCHAR
STARTCHAR ampersand
ENCODING 38
SWIDTH 520 0
DWIDTH 9 0
BBX 9 13 0 0
BITMAP
0005650000
0006060000
0015060000
0006060000
0006710000
000A200000
0067102620
0531506020
0600624000
33002A1000
32000A1000
1500437000
0466401640
ENDCHAR
STARTCHAR quotesingle
ENCODING 39
SWIDTH 121 0
DWIDTH 2 0
BBX 2 4 0 9
BITMAP
14
14
14
12
ENDCHAR
STARTCHAR parenleft
ENCODING 40
SWIDTH 233 0
DWIDTH 4 0
BBX 3 15 1 -1
BITMAP
0030
0430
0600
1500
5100
6000
6000
6000
6000
6000
5000
3300
0600
0510
0050
ENDCHAR
STARTCHAR parenright
ENCODING 41
SWIDTH 233 0
DWIDTH 4 0
BBX 3 15 0 -2
BITMAP
4200
0600
0510
0150
0060
0060
0060
0060
0060
0060
0060
0240
0600
1500
3000
ENDCHAR
STARTCHAR asterisk
ENCODING 42
SWIDTH 313 0
DWIDTH 6 0
BBX 5 4 0 9
BITMAP
005000
157350
009600
042510
ENDCHAR
STARTCHAR plus
ENCODING 43
SWIDTH 577 0
DWIDTH 10 0
BBX 9 9 1 0
BITMAP
0000500000
0000600000
0000600000
0000600000
6666966620
0000600000
0000600000
0000600000
0000500000
ENDCHAR
STARTCHAR comma
ENCODING 44
SWIDTH 145 0
DWIDTH 3 0
BBX 2 4 0 -2
BITMAP
02
06
06
43
ENDCHAR
STARTCHAR hyphen
ENCODING 45
SWIDTH 286 0
DWIDTH 5 0
BBX 5 1 0 5
BITMAP
166620
ENDCHAR
STARTCHAR period
ENCODING 46
SWIDTH 181 0
DWIDTH 3 0
BBX 1 2 1 0
BITMAP
40
50
ENDCHAR
STARTCHAR slash
ENCODING 47
SWIDTH 292 0
DWIDTH 5 0
BBX 6 16 0 -1
BITMAP
000021
000060
000060
000240
000500
000600
001500
005100
006000
006000
042000
060000
060000
330000
600000
500000
ENDCHAR
STARTCHAR zero
ENCODING 48
SWIDTH 378 0
DWIDTH 7 0
BBX 7 13 0 0
BITMAP
00666000
06103400
06000600
16000500
33000600
42000500
42000510
42000500
33000600
16000500
06000600
06103400
00666000
ENDCHAR
STARTCHAR one
ENCODING 49
SWIDTH 303 0
DWIDTH 5 0
BBX 6 13 0 0
BITMAP
06A000
226000
006000
006000
006000
006000
006000
006000
006000
006000
006000
006000
369661
ENDCHAR
STARTCHAR two
ENCODING 50
SWIDTH 343 0
DWIDTH 6 0
BBX 6 13 0 0
BITMAP
046650
150042
000005
000006
000024
000060
000250
000700
006100
043000
060000
510000
766664
ENDCHAR
STARTCHAR three
ENCODING 51
SWIDTH 377 0
DWIDTH 7 0
BBX 6 13 0 0
BITMAP
017560
070034
000006
000006
000033
016680
035534
000006
000005
000006
000006
310015
066660
ENDCHAR
STARTCHAR four
ENCODING 52
SWIDTH 389 0
DWIDTH 7 0
BBX 7 13 0 0
BITMAP
00005000
00024000
00060000
00150000
00515000
00606000
03206000
06006000
14006000
46669620
00006000
00006000
00005000
ENDCHAR
STARTCHAR five
ENCODING 53
SWIDTH 372 0
DWIDTH 7 0
BBX 6 14 0 0
BITMAP
000005
018551
014000
014000
014000
014000
038640
273034
270006
000006
000006
000006
310016
066660
ENDCHAR
STARTCHAR six
ENCODING 54
SWIDTH 360 0
DWIDTH 6 0
BBX 6 13 0 0
BITMAP
000430
002500
007000
042000
060000
064550
263016
330006
420006
330006
150006
060025
026560
ENDCHAR
STARTCHAR seven
ENCODING 55
SWIDTH 321 0
DWIDTH 6 0
BBX 6 13 0 0
BITMAP
366691
000050
000050
000420
000600
000500
003300
006000
006000
023000
060000
060000
140000
ENDCHAR
STARTCHAR eight
ENCODING 56
SWIDTH 377 0
DWIDTH 7 0
BBX 6 13 0 0
BITMAP
026561
060006
050006
060006
061025
017460
005840
062043
160006
320006
330006
070007
036671
ENDCHAR
STARTCHAR nine
ENCODING 57
SWIDTH 360 0
DWIDTH 6 0
BBX 6 13 0 -1
BITMAP
036660
060043
320006
600006
600006
420006
060056
036616
000042
000060
000340
001600
007100
ENDCHAR
STARTCHAR colon
ENCODING 58
SWIDTH 181 0
DWIDTH 3 0
BBX 1 9 1 0
BITMAP
40
50
00
00
00
00
00
40
50
ENDCHAR
STARTCHAR semicolon
ENCODING 59
SWIDTH 165 0
DWIDTH 3 0
BBX 2 11 0 -2
BITMAP
04
05
00
00
00
00
00
02
06
06
43
ENDCHAR
STARTCHAR less
ENCODING 60
SWIDTH 482 0
DWIDTH 9 0
BBX 7 8 1 0
BITMAP
00000440
00046300
03630000
93000000
26400000
00264000
00002640
00000010
ENDCHAR
STARTCHAR equal
ENCODING 61
SWIDTH 577 0
DWIDTH 10 0
BBX 9 4 1 3
BITMAP
6666666620
0000000000
0000000000
6666666620
ENDCHAR
STARTCHAR greater
ENCODING 62
SWIDTH 482 0
DWIDTH 9 0
BBX 7 8 1 1
BITMAP
10000000
66100000
01661000
00016610
00000660
00056100
05620000
62000000
ENDCHAR
STARTCHAR question
ENCODING 63
SWIDTH 300 0
DWIDTH 5 0
BBX 5 13 0 0
BITMAP
176700
410240
000060
000330
000700
004300
006000
033000
024000
002000
000000
004000
005000
ENDCHAR
STARTCHAR at
ENCODING 64
SWIDTH 748 0
DWIDTH 13 0
BBX 13 13 0 0
BITMAP
00016666650000
00360016417100
02600070600700
06000520600240
16000600100060
33004207100060
42006055200060
33006067000160
16006075000610
060060A2005300
02605616661100
00360000006400
00016666662000
ENDCHAR
STARTCHAR A
ENCODING 65
SWIDTH 414 0
DWIDTH 7 0
BBX 8 13 0 0
BITMAP
00070000
00084000
00146000
00515000
00505100
00501400
02300500
05666800
05000410
05000140
23000050
50000060
50000041
ENDCHAR
STARTCHAR B
ENCODING 66
SWIDTH 375 0
DWIDTH 7 0
BBX 5 13 1 0
BITMAP
966500
600430
600060
600060
600060
666350
646830
600060
600060
600060
600060
600340
967600
ENDCHAR
STARTCHAR C
ENCODING 67
SWIDTH 366 0
DWIDTH 7 0
BBX 6 13 0 0
BITMAP
005656
043000
060000
050000
230000
420000
420000
420000
230000
050000
060000
043000
005666
ENDCHAR
STARTCHAR D
ENCODING 68
SWIDTH 396 0
DWIDTH 7 0
BBX 6 13 1 0
BITMAP
966700
600160
600060
600042
600014
600006
600006
600006
600014
600042
600060
600160
966700
ENDCHAR
STARTCHAR E
ENCODING 69
SWIDTH 309 0
DWIDTH 6 0
BBX 4 13 1 0
BITMAP
9664
6000
6000
6000
6000
9663
6000
6000
6000
6000
6000
6000
9664
ENDCHAR
STARTCHAR F
ENCODING 70
SWIDTH 299 0
DWIDTH 5 0
BBX 4 13 1 0
BITMAP
9665
6000
6000
6000
6000
9663
6000
6000
6000
6000
6000
6000
5000
ENDCHAR
STARTCHAR G
ENCODING 71
SWIDTH 382 0
DWIDTH 7 0
BBX 7 13 0 0
BITMAP
00565600
04300000
06000000
05000000
23000000
42000000
42000000
42015610
33000320
05000320
06000320
04300320
00565600
ENDCHAR
STARTCHAR H
ENCODING 72
SWIDTH 425 0
DWIDTH 8 0
BBX 6 13 1 0
BITMAP
500005
600006
600006
600006
600006
600006
966667
600006
600006
600006
600006
600006
500005
ENDCHAR
STARTCHAR I
ENCODING 73
SWIDTH 141 0
DWIDTH 3 0
BBX 1 13 1 0
BITMAP
50
60
60
60
60
60
60
60
60
60
60
60
50
ENDCHAR
STARTCHAR J
ENCODING 74
SWIDTH 142 0
DWIDTH 3 0
BBX 4 17 -2 -4
BITMAP
0005
0006
0006
0006
0006
0006
0006
0006
0006
0006
0006
0006
0006
0006
0005
0042
3640
ENDCHAR
STARTCHAR K
ENCODING 75
SWIDTH 401 0
DWIDTH 7 0
BBX 7 13 0 0
BITMAP
05000430
06000600
06005100
06006000
06015000
497A0000
69516000
06002400
06000600
06000600
06000510
06000240
05000050
ENDCHAR
STARTCHAR L
ENCODING 76
SWIDTH 347 0
DWIDTH 6 0
BBX 5 13 1 0
BITMAP
500000
600000
600000
600000
600000
600000
600000
600000
600000
600000
600000
600000
966640
ENDCHAR
STARTCHAR M
ENCODING 77
SWIDTH 534 0
DWIDTH 10 0
BBX 9 13 0 0
BITMAP
0560001A00
0646018610
0603670420
0600840330
0601560240
0600660150
0600840060
0600730060
0600650060
0600750060
1500100060
2400000060
2300000050
ENDCHAR
STARTCHAR N
ENCODING 78
SWIDTH 422 0
DWIDTH 8 0
BBX 6 13 1 0
BITMAP
700005
C10006
760006
670006
643006
607006
606106
601506
600606
600336
600066
600056
500017
ENDCHAR
STARTCHAR O
ENCODING 79
SWIDTH 446 0
DWIDTH 8 0
BBX 8 13 0 0
BITMAP
00566500
04300240
06000060
06000051
23000033
42000024
42000025
42000024
23000033
05000051
06000060
04300240
00566500
ENDCHAR
STARTCHAR P
ENCODING 80
SWIDTH 341 0
DWIDTH 6 0
BBX 5 13 1 0
BITMAP
966600
600340
600060
600060
600150
600710
966200
600000
600000
600000
600000
600000
500000
ENDCHAR
STARTCHAR Q
ENCODING 81
SWIDTH 446 0
DWIDTH 8 0
BBX 8 18 0 -5
BITMAP
00566500
04300240
06000060
05000051
23000033
42000024
42000024
42000024
39100083
06710760
07067160
05357350
006A9600
00066000
00046000
00056000
00066000
00056000
ENDCHAR
STARTCHAR R
ENCODING 82
SWIDTH 380 0
DWIDTH 7 0
BBX 7 13 0 0
BITMAP
09667000
06001500
06000600
06000600
06000600
69635100
49566000
06005100
06001500
06000600
06000600
06000410
05000140
ENDCHAR
STARTCHAR S
ENCODING 83
SWIDTH 356 0
DWIDTH 6 0
BBX 6 13 0 0
BITMAP
047660
160015
330000
250000
070000
026000
002700
000170
000016
000006
400006
330016
046661
ENDCHAR
STARTCHAR T
ENCODING 84
SWIDTH 377 0
DWIDTH 7 0
BBX 7 13 0 0
BITMAP
46696630
00060000
00060000
00060000
00060000
00060000
00060000
00060000
00060000
00060000
00060000
00060000
00050000
ENDCHAR
STARTCHAR U
ENCODING 85
SWIDTH 412 0
DWIDTH 7 0
BBX 7 13 0 0
BITMAP
14000050
14000060
14000060
14000060
14000060
14000060
14000060
14000060
14000060
14000060
05000050
06000330
02666500
ENDCHAR
STARTCHAR V
ENCODING 86
SWIDTH 384 0
DWIDTH 7 0
BBX 7 13 0 0
BITMAP
50000050
50000150
33000410
05000600
06000600
06000500
04203200
00505000
00505000
00505000
00443000
001A0000
00080000
ENDCHAR
STARTCHAR W
ENCODING 87
SWIDTH 534 0
DWIDTH 10 0
BBX 9 13 0 0
BITMAP
2300000050
2400000060
1500000060
0600000060
0600740060
0600660060
0600650060
0600740150
0600720240
0601570330
0606043420
0653006610
0540000900
ENDCHAR
STARTCHAR X
ENCODING 88
SWIDTH 318 0
DWIDTH 6 0
BBX 6 13 0 0
BITMAP
410041
150060
060150
042510
006600
007400
007300
006600
033600
060150
050060
510051
600005
ENDCHAR
STARTCHAR Y
ENCODING 89
SWIDTH 370 0
DWIDTH 7 0
BBX 7 13 0 0
BITMAP
60000150
42000600
06000600
06105200
01506000
00634000
00390000
00060000
00060000
00060000
00060000
00060000
00050000
ENDCHAR
STARTCHAR Z
ENCODING 90
SWIDTH 309 0
DWIDTH 6 0
BBX 6 13 0 0
BITMAP
366690
000060
000240
000600
000600
002300
006000
006000
032000
060000
050000
420000
766661
ENDCHAR
STARTCHAR bracketleft
ENCODING 91
SWIDTH 193 0
DWIDTH 3 0
BBX 3 16 1 -1
BITMAP
7620
6000
6000
6000
6000
6000
6000
6000
6000
6000
6000
6000
6000
6000
6000
7620
ENDCHAR
STARTCHAR backslash
ENCODING 92
SWIDTH 292 0
DWIDTH 5 0
BBX 6 16 0 -1
BITMAP
200000
600000
510000
150000
060000
060000
024000
006000
006000
003300
000600
000600
000420
000060
000060
000041
ENDCHAR
STARTCHAR bracketright
ENCODING 93
SWIDTH 193 0
DWIDTH 3 0
BBX 3 16 0 -1
BITMAP
5640
0060
0060
0060
0060
0060
0060
0060
0060
0060
0060
0060
0060
0060
0060
5640
ENDCHAR
STARTCHAR asciicircum
ENCODING 94
SWIDTH 416 0
DWIDTH 7 0
BBX 7 8 0 6
BITMAP
00010000
00083000
00336000
00604200
02400600
06000520
15000060
60000050
ENDCHAR
STARTCHAR underscore
ENCODING 95
SWIDTH 556 0
DWIDTH 10 0
BBX 10 1 0 -1
BITMAP
1666666661
ENDCHAR
STARTCHAR grave
ENCODING 96
SWIDTH 201 0
DWIDTH 4 0
BBX 2 2 1 10
BITMAP
70
24
ENDCHAR
STARTCHAR a
ENCODING 97
SWIDTH 315 0
DWIDTH 6 0
BBX 6 9 0 0
BITMAP
056700
030330
000240
000240
016740
170240
510240
600440
176581
ENDCHAR
STARTCHAR b
ENCODING 98
SWIDTH 298 0
DWIDTH 5 0
BBX 4 13 1 0
BITMAP
5000
6000
6000
6000
9660
7023
6006
6006
6006
6006
6006
7023
8660
ENDCHAR
STARTCHAR c
ENCODING 99
SWIDTH 275 0
DWIDTH 5 0
BBX 5 9 0 0
BITMAP
036600
060240
150000
320000
420000
320000
150000
060240
036600
ENDCHAR
STARTCHAR d
ENCODING 100
SWIDTH 298 0
DWIDTH 5 0
BBX 5 13 0 0
BITMAP
000140
000140
000140
000140
045740
060340
240140
420140
420140
420140
240140
060240
046740
ENDCHAR
STARTCHAR e
ENCODING 101
SWIDTH 285 0
DWIDTH 5 0
BBX 5 9 0 0
BITMAP
036700
060240
140050
375550
420000
330000
150000
070150
036700
ENDCHAR
STARTCHAR f
ENCODING 102
SWIDTH 178 0
DWIDTH 3 0
BBX 5 13 0 0
BITMAP
016610
061000
060000
060000
596100
060000
060000
060000
060000
060000
060000
060000
050000
ENDCHAR
STARTCHAR g
ENCODING 103
SWIDTH 302 0
DWIDTH 5 0
BBX 6 14 0 -4
BITMAP
000130
046A10
070230
150050
240060
160060
070430
068500
240000
067400
410272
600006
600025
466660
ENDCHAR
STARTCHAR h
ENCODING 104
SWIDTH 307 0
DWIDTH 6 0
BBX 4 13 1 0
BITMAP
5000
6000
6000
6000
8663
8006
6006
6006
6006
6006
6006
6006
5005
ENDCHAR
STARTCHAR i
ENCODING 105
SWIDTH 141 0
DWIDTH 3 0
BBX 1 12 1 0
BITMAP
60
50
00
50
60
60
60
60
60
60
60
50
ENDCHAR
STARTCHAR j
ENCODING 106
SWIDTH 141 0
DWIDTH 3 0
BBX 4 16 -2 -4
BITMAP
0006
0005
0000
0005
0006
0006
0006
0006
0006
0006
0006
0006
0006
0005
0033
2650
ENDCHAR
STARTCHAR k
ENCODING 107
SWIDTH 287 0
DWIDTH 5 0
BBX 4 13 1 0
BITMAP
5000
6000
6000
6000
6003
6061
6340
6A00
A240
6060
6051
6015
5006
ENDCHAR
STARTCHAR l
ENCODING 108
SWIDTH 141 0
DWIDTH 3 0
BBX 1 13 1 0
BITMAP
50
60
60
60
60
60
60
60
60
60
60
60
50
ENDCHAR
STARTCHAR m
ENCODING 109
SWIDTH 407 0
DWIDTH 7 0
BBX 6 9 1 0
BITMAP
930066
654716
609206
607506
606506
606206
600006
600006
500005
ENDCHAR
STARTCHAR n
ENCODING 110
SWIDTH 307 0
DWIDTH 6 0
BBX 4 9 1 0
BITMAP
7663
8006
6006
6006
6006
6006
6006
6006
5005
ENDCHAR
STARTCHAR o
ENCODING 111
SWIDTH 309 0
DWIDTH 6 0
BBX 5 9 0 0
BITMAP
036600
060140
150060
320060
420060
320060
150060
060140
036600
ENDCHAR
STARTCHAR p
ENCODING 112
SWIDTH 299 0
DWIDTH 5 0
BBX 5 14 0 -4
BITMAP
020000
395600
260230
060060
060060
060060
060060
060060
070240
096600
060000
060000
060000
050000
ENDCHAR
STARTCHAR q
ENCODING 113
SWIDTH 286 0
DWIDTH 5 0
BBX 6 13 0 -4
BITMAP
046740
060240
240140
430140
420140
430140
240140
060340
046740
000140
000140
000140
000081
ENDCHAR
STARTCHAR r
ENCODING 114
SWIDTH 277 0
DWIDTH 5 0
BBX 4 9 1 0
BITMAP
8663
8006
6002
6000
6000
6000
6000
6000
5000
ENDCHAR
STARTCHAR s
ENCODING 115
SWIDTH 257 0
DWIDTH 5 0
BBX 5 9 0 0
BITMAP
066500
330200
330000
070000
017100
000700
000420
500510
176600
ENDCHAR
STARTCHAR t
ENCODING 116
SWIDTH 207 0
DWIDTH 4 0
BBX 4 12 0 0
BITMAP
0200
0600
0600
5961
0600
0600
0600
0600
0600
0600
0600
0361
ENDCHAR
STARTCHAR u
ENCODING 117
SWIDTH 307 0
DWIDTH 6 0
BBX 5 9 0 0
BITMAP
140050
140060
140060
140060
140060
140060
140060
150160
065650
ENDCHAR
STARTCHAR v
ENCODING 118
SWIDTH 285 0
DWIDTH 5 0
BBX 5 9 0 0
BITMAP
500050
510060
240240
060500
060500
050500
034400
00A100
008000
ENDCHAR
STARTCHAR w
ENCODING 119
SWIDTH 396 0
DWIDTH 7 0
BBX 7 9 0 0
BITMAP
50000050
50000060
42071060
33173150
24182240
050A0320
06293510
06707600
09100900
ENDCHAR
STARTCHAR x
ENCODING 120
SWIDTH 244 0
DWIDTH 4 0
BBX 4 9 0 0
BITMAP
4105
0615
0651
0470
0270
0660
0633
3306
6006
ENDCHAR
STARTCHAR y
ENCODING 121
SWIDTH 285 0
DWIDTH 5 0
BBX 5 13 0 -4
BITMAP
500050
510060
240240
060510
060500
060500
042500
018200
00A000
006000
006000
023000
460000
ENDCHAR
STARTCHAR z
ENCODING 122
SWIDTH 233 0
DWIDTH 4 0
BBX 4 9 0 0
BITMAP
2668
0015
0051
0060
0240
0600
0600
3300
7664
ENDCHAR
STARTCHAR braceleft
ENCODING 123
SWIDTH 306 0
DWIDTH 6 0
BBX 6 16 0 -1
BITMAP
000462
000600
000600
000600
000600
000600
000600
466400
466400
000600
000600
000600
000600
000600
000600
000462
ENDCHAR
STARTCHAR bar
ENCODING 124
SWIDTH 141 0
DWIDTH 3 0
BBX 1 16 1 -1
BITMAP
20
60
60
60
60
60
60
60
60
60
60
60
60
60
60
50
ENDCHAR
STARTCHAR braceright
ENCODING 125
SWIDTH 306 0
DWIDTH 6 0
BBX 6 16 0 -1
BITMAP
561000
005000
006000
006000
006000
006000
005000
007661
006660
005000
006000
006000
006000
006000
005000
561000
ENDCHAR
STARTCHAR asciitilde
ENCODING 126
SWIDTH 433 0
DWIDTH 8 0
BBX 7 2 0 4
BITMAP
06651040
23016640
ENDCHAR
STARTCHAR uni00A0
ENCODING 160
SWIDTH 240 0
DWIDTH 4 0
BBX 1 1 0 0
BITMAP
00
ENDCHAR
STARTCHAR exclamdown
ENCODING 161
SWIDTH 141 0
DWIDTH 3 0
BBX 1 13 1 -3
BITMAP
50
40
00
30
60
60
60
60
60
60
60
60
50
ENDCHAR
STARTCHAR cent
ENCODING 162
SWIDTH 275 0
DWIDTH 5 0
BBX 5 12 0 -2
BITMAP
005000
007100
058610
066020
246000
426000
336000
246000
066240
04A700
006000
005000
ENDCHAR
STARTCHAR sterling
ENCODING 163
SWIDTH 331 0
DWIDTH 6 0
BBX 6 13 0 0
BITMAP
066650
430041
600000
510000
160000
061000
269630
006000
006000
006000
034000
070000
776663
ENDCHAR
STARTCHAR currency
ENCODING 164
SWIDTH 506 0
DWIDTH 9 0
BBX 8 9 1 1
BITMAP
30000021
56767660
07000610
51000060
60000060
43000150
0A100910
62666270
10000011
ENDCHAR
STARTCHAR yen
ENCODING 165
SWIDTH 370 0
DWIDTH 7 0
BBX 7 13 0 0
BITMAP
60000150
42000600
06000600
06104200
01506000
00624000
00390000
00060000
05696300
00060000
05696300
00060000
00050000
ENDCHAR
STARTCHAR brokenbar
ENCODING 166
SWIDTH 141 0
DWIDTH 3 0
BBX 1 16 1 -1
BITMAP
20
60
60
60
60
60
50
00
00
20
60
60
60
60
60
50
ENDCHAR
STARTCHAR section
ENCODING 167
SWIDTH 303 0
DWIDTH 5 0
BBX 5 17 0 -2
BITMAP
046610
350160
600020
510000
160000
027100
07EC10
2B3780
430070
220040
020110
004600
000250
000060
200060
520160
056600
ENDCHAR
STARTCHAR dieresis
ENCODING 168
SWIDTH 241 0
DWIDTH 4 0
BBX 3 2 1 10
BITMAP
6240
5230
ENDCHAR
STARTCHAR copyright
ENCODING 169
SWIDTH 772 0
DWIDTH 14 0
BBX 14 14 0 0
BITMAP
00002666620000
00064000056000
00710000001600
05200166100340
06000610000060
24000600000050
42000500000042
42000500000042
24000500000050
06000600000060
05200610000340
00710166101600
00064000056000
00002666620000
ENDCHAR
STARTCHAR ordfeminine
ENCODING 170
SWIDTH 231 0
DWIDTH 4 0
BBX 4 6 0 7
BITMAP
1780
0051
0081
2761
6051
4684
ENDCHAR
STARTCHAR guillemotleft
ENCODING 171
SWIDTH 403 0
DWIDTH 7 0
BBX 7 8 0 2
BITMAP
00020020
00160520
00704300
07135000
26070000
05317000
00612600
00070340
ENDCHAR
STARTCHAR logicalnot
ENCODING 172
SWIDTH 557 0
DWIDTH 10 0
BBX 10 4 0 2
BITMAP
1666666663
0000000015
0000000015
0000000013
ENDCHAR
STARTCHAR uni00AD
ENCODING 173
SWIDTH 286 0
DWIDTH 5 0
BBX 5 1 0 5
BITMAP
166620
ENDCHAR
STARTCHAR registered
ENCODING 174
SWIDTH 772 0
DWIDTH 14 0
BBX 14 14 0 0
BITMAP
00002666620000
00064000056000
00710000001600
05200466000340
06000602400060
24000600500050
42000604300042
42000669000042
24000602400050
06000600600060
05200600600340
00710200201600
00064000056000
00002666620000
ENDCHAR
STARTCHAR macron
ENCODING 175
SWIDTH 266 0
DWIDTH 5 0
BBX 3 1 1 11
BITMAP
5640
ENDCHAR
STARTCHAR degree
ENCODING 176
SWIDTH 350 0
DWIDTH 6 0
BBX 6 5 0 8
BITMAP
017630
070052
150016
070052
017630
ENDCHAR
STARTCHAR plusminus
ENCODING 177
SWIDTH 577 0
DWIDTH 10 0
BBX 9 9 1 0
BITMAP
0000500000
0000600000
0000600000
6666966620
0000600000
0000600000
0000600000
0000200000
6666666620
ENDCHAR
STARTCHAR uni00B2
ENCODING 178
SWIDTH 207 0
DWIDTH 4 0
BBX 4 6 0 7
BITMAP
1770
1051
0060
0430
1600
5661
ENDCHAR
STARTCHAR uni00B3
ENCODING 179
SWIDTH 214 0
DWIDTH 4 0
BBX 4 6 0 7
BITMAP
1770
0060
0370
0050
0051
3660
ENDCHAR
STARTCHAR acute
ENCODING 180
SWIDTH 201 0
DWIDTH 4 0
BBX 2 2 1 10
BITMAP
24
60
ENDCHAR
STARTCHAR uni00B5
ENCODING 181
SWIDTH 335 0
DWIDTH 6 0
BBX 5 13 1 -4
BITMAP
500500
600600
600600
600600
600600
600600
600600
600700
966730
600000
600000
600000
500000
ENDCHAR
STARTCHAR paragraph
ENCODING 182
SWIDTH 471 0
DWIDTH 8 0
BBX 7 13 1 0
BITMAP
08EF9050
7FFF9060
CFFF9060
DFFF9060
BFFF9060
4FFF9060
03798060
00006060
00006060
00006060
00006060
00006060
00005050
ENDCHAR
STARTCHAR periodcentered
ENCODING 183
SWIDTH 181 0
DWIDTH 3 0
BBX 1 2 1 5
BITMAP
40
50
ENDCHAR
STARTCHAR cedilla
ENCODING 184
SWIDTH 232 0
DWIDTH 4 0
BBX 3 4 1 -3
BITMAP
1100
7600
0510
5600
ENDCHAR
STARTCHAR uni00B9
ENCODING 185
SWIDTH 176 0
DWIDTH 3 0
BBX 3 6 0 7
BITMAP
3900
0600
0600
0600
0600
3950
ENDCHAR
STARTCHAR ordmasculine
ENCODING 186
SWIDTH 201 0
DWIDTH 4 0
BBX 4 6 0 7
BITMAP
1750
5050
5042
5042
5050
1750
ENDCHAR
STARTCHAR guillemotright
ENCODING 187
SWIDTH 403 0
DWIDTH 7 0
BBX 7 8 0 0
BITMAP
15061000
04407000
00521700
00080250
00350710
01605200
07043000
11020000
ENDCHAR
STARTCHAR onequarter
ENCODING 188
SWIDTH 527 0
DWIDTH 9 0
BBX 8 13 1 0
BITMAP
75000051
15000060
15000520
15000600
15004200
69106000
00033000
00060140
00240610
00600640
02403360
06005693
15000050
ENDCHAR
STARTCHAR onehalf
ENCODING 189
SWIDTH 540 0
DWIDTH 10 0
BBX 8 13 1 0
BITMAP
75000051
15000060
15000520
15000600
15004200
69106000
00033000
00060465
00240206
00600015
02400070
06000430
15000864
ENDCHAR
STARTCHAR threequarters
ENCODING 190
SWIDTH 517 0
DWIDTH 9 0
BBX 9 13 0 0
BITMAP
1770000510
0060000600
0370005200
0050006000
0051042000
3660060000
0000330000
0000600500
0002404200
0006006400
0024015600
0060036940
0150000500
ENDCHAR
STARTCHAR questiondown
ENCODING 191
SWIDTH 300 0
DWIDTH 5 0
BBX 4 13 1 -3
BITMAP
0230
0130
0000
0110
0060
0060
0340
0700
5200
6000
6000
6004
4663
ENDCHAR
STARTCHAR Agrave
ENCODING 192
SWIDTH 414 0
DWIDTH 7 0
BBX 8 16 0 0
BITMAP
00330000
00050000
00000000
00070000
00084000
00146000
00515000
00505100
00501400
02300500
05666800
05000410
05000140
23000050
50000060
50000041
ENDCHAR
STARTCHAR Aacute
ENCODING 193
SWIDTH 414 0
DWIDTH 7 0
BBX 8 16 0 0
BITMAP
00006000
00023000
00000000
00070000
00084000
00146000
00515000
00505100
00501400
02300500
05666800
05000410
05000140
23000050
50000060
50000041
ENDCHAR
STARTCHAR Acircumflex
ENCODING 194
SWIDTH 414 0
DWIDTH 7 0
BBX 8 15 0 0
BITMAP
00073000
00425000
00070000
00084000
00146000
00515000
00505100
00501400
02300500
05666800
05000410
05000140
23000050
50000060
50000041
ENDCHAR
STARTCHAR Atilde
ENCODING 195
SWIDTH 414 0
DWIDTH 7 0
BBX 8 16 0 0
BITMAP
00451200
00327000
00000000
00070000
00084000
00146000
00515000
00505100
00501400
02300500
05666800
05000410
05000140
23000050
50000060
50000041
ENDCHAR
STARTCHAR Adieresis
ENCODING 196
SWIDTH 414 0
DWIDTH 7 0
BBX 8 16 0 0
BITMAP
00314000
00415000
00000000
00070000
00084000
00146000
00515000
00505100
00501400
02300500
05666800
05000410
05000140
23000050
50000060
50000041
ENDCHAR
STARTCHAR Aring
ENCODING 197
SWIDTH 414 0
DWIDTH 7 0
BBX 8 16 0 0
BITMAP
00063000
00326000
00063000
00070000
00084000
00146000
00515000
00505100
00501400
02300500
05666800
05000410
05000140
23000050
50000060
50000041
ENDCHAR
STARTCHAR AE
ENCODING 198
SWIDTH 545 0
DWIDTH 10 0
BBX 9 13 0 0
BITMAP
0000096660
0000380000
0000660000
0001460000
0005060000
0005076650
0032060000
0066680000
0140060000
0500060000
0500060000
3200060000
5000076660
ENDCHAR
STARTCHAR Ccedilla
ENCODING 199
SWIDTH 366 0
DWIDTH 7 0
BBX 6 16 0 -3
BITMAP
005656
043000
060000
050000
230000
420000
420000
420000
230000
050000
060000
043000
005766
000760
000060
000560
ENDCHAR
STARTCHAR Egrave
ENCODING 200
SWIDTH 309 0
DWIDTH 6 0
BBX 4 16 1 0
BITMAP
1500
0400
0000
9664
6000
6000
6000
6000
9663
6000
6000
6000
6000
6000
6000
9664
ENDCHAR
STARTCHAR Eacute
ENCODING 201
SWIDTH 309 0
DWIDTH 6 0
BBX 4 16 1 0
BITMAP
0051
0040
0000
9664
6000
6000
6000
6000
9663
6000
6000
6000
6000
6000
6000
9664
ENDCHAR
STARTCHAR Ecircumflex
ENCODING 202
SWIDTH 309 0
DWIDTH 6 0
BBX 4 15 1 0
BITMAP
0550
2441
9664
6000
6000
6000
6000
9663
6000
6000
6000
6000
6000
6000
9664
ENDCHAR
STARTCHAR Edieresis
ENCODING 203
SWIDTH 309 0
DWIDTH 6 0
BBX 4 16 1 0
BITMAP
0440
1450
0000
9664
6000
6000
6000
6000
9663
6000
6000
6000
6000
6000
6000
9664
ENDCHAR
STARTCHAR Igrave
ENCODING 204
SWIDTH 141 0
DWIDTH 3 0
BBX 2 16 0 0
BITMAP
60
23
00
05
06
06
06
06
06
06
06
06
06
06
06
05
ENDCHAR
STARTCHAR Iacute
ENCODING 205
SWIDTH 141 0
DWIDTH 3 0
BBX 2 16 1 0
BITMAP
24
50
00
50
60
60
60
60
60
60
60
60
60
60
60
50
ENDCHAR
STARTCHAR Icircumflex
ENCODING 206
SWIDTH 141 0
DWIDTH 3 0
BBX 3 15 0 0
BITMAP
3700
5240
0500
0600
0600
0600
0600
0600
0600
0600
0600
0600
0600
0600
0500
ENDCHAR
STARTCHAR Idieresis
ENCODING 207
SWIDTH 141 0
DWIDTH 3 0
BBX 3 16 0 0
BITMAP
4130
5140
0000
0500
0600
0600
0600
0600
0600
0600
0600
0600
0600
0600
0600
0500
ENDCHAR
STARTCHAR Eth
ENCODING 208
SWIDTH 396 0
DWIDTH 7 0
BBX 7 13 0 0
BITMAP
09667000
06001600
06000600
06000420
06000140
06000060
49630060
06000060
06000140
06000420
06000600
06001600
09667000
ENDCHAR
STARTCHAR Ntilde
ENCODING 209
SWIDTH 422 0
DWIDTH 8 0
BBX 6 16 1 0
BITMAP
045130
032710
000000
700005
C10006
760006
670006
643006
607006
606106
601506
600606
600336
600066
600056
500017
ENDCHAR
STARTCHAR Ograve
ENCODING 210
SWIDTH 446 0
DWIDTH 8 0
BBX 8 16 0 0
BITMAP
00060000
00041000
00000000
00566500
04300240
06000060
06000051
23000033
42000024
42000025
42000024
23000033
05000051
06000060
04300240
00566500
ENDCHAR
STARTCHAR Oacute
ENCODING 211
SWIDTH 446 0
DWIDTH 8 0
BBX 8 16 0 0
BITMAP
00005100
00005000
00000000
00566500
04300240
06000060
06000051
23000033
42000024
42000025
42000024
23000033
05000051
06000060
04300240
00566500
ENDCHAR
STARTCHAR Ocircumflex
ENCODING 212
SWIDTH 446 0
DWIDTH 8 0
BBX 8 15 0 0
BITMAP
00055000
00144100
00566500
04300240
06000060
06000051
23000033
42000024
42000025
42000024
23000033
05000051
06000060
04300240
00566500
ENDCHAR
STARTCHAR Otilde
ENCODING 213
SWIDTH 446 0
DWIDTH 8 0
BBX 8 16 0 0
BITMAP
00361300
00306200
00000000
00566500
04300240
06000060
06000051
23000033
42000024
42000025
42000024
23000033
05000051
06000060
04300240
00566500
ENDCHAR
STARTCHAR Odieresis
ENCODING 214
SWIDTH 446 0
DWIDTH 8 0
BBX 8 16 0 0
BITMAP
00044000
00055000
00000000
00566500
04300240
06000060
06000051
23000033
42000024
42000025
42000024
23000033
05000051
06000060
04300240
00566500
ENDCHAR
STARTCHAR multiply
ENCODING 215
SWIDTH 445 0
DWIDTH 8 0
BBX 7 7 1 1
BITMAP
50000320
36003500
03635000
00690000
03536000
35003600
50000310
ENDCHAR
STARTCHAR Oslash
ENCODING 216
SWIDTH 446 0
DWIDTH 8 0
BBX 8 13 0 0
BITMAP
00566560
04300370
06000670
06000651
23005133
42006024
42033025
42060024
23150033
06600051
07600060
07400240
06566500
ENDCHAR
STARTCHAR Ugrave
ENCODING 217
SWIDTH 412 0
DWIDTH 7 0
BBX 7 16 0 0
BITMAP
00330000
00050000
00000000
14000050
14000060
14000060
14000060
14000060
14000060
14000060
14000060
14000060
14000060
05000050
06000330
02666500
ENDCHAR
STARTCHAR Uacute
ENCODING 218
SWIDTH 412 0
DWIDTH 7 0
BBX 7 16 0 0
BITMAP
00006000
00022000
00000000
14000050
14000060
14000060
14000060
14000060
14000060
14000060
14000060
14000060
14000060
05000050
06000330
02666500
ENDCHAR
STARTCHAR Ucircumflex
ENCODING 219
SWIDTH 412 0
DWIDTH 7 0
BBX 7 15 0 0
BITMAP
00073000
00415000
14000050
14000060
14000060
14000060
14000060
14000060
14000060
14000060
14000060
14000060
05000050
06000330
02666500
ENDCHAR
STARTCHAR Udieresis
ENCODING 220
SWIDTH 412 0
DWIDTH 7 0
BBX 7 16 0 0
BITMAP
00414000
00415000
00000000
14000050
14000060
14000060
14000060
14000060
14000060
14000060
14000060
14000060
14000060
05000050
06000330
02666500
ENDCHAR
STARTCHAR Yacute
ENCODING 221
SWIDTH 370 0
DWIDTH 7 0
BBX 7 16 0 0
BITMAP
00024000
00050000
00000000
60000150
42000600
06000600
06105200
01506000
00634000
00390000
00060000
00060000
00060000
00060000
00060000
00050000
ENDCHAR
STARTCHAR Thorn
ENCODING 222
SWIDTH 341 0
DWIDTH 6 0
BBX 5 13 1 0
BITMAP
500000
600000
966300
600610
600060
600060
600060
600150
600700
967200
600000
600000
500000
ENDCHAR
STARTCHAR germandbls
ENCODING 223
SWIDTH 327 0
DWIDTH 6 0
BBX 4 13 1 0
BITMAP
4661
6015
6006
6006
6006
6674
6655
6005
6005
6006
6006
6006
6671
ENDCHAR
STARTCHAR agrave
ENCODING 224
SWIDTH 315 0
DWIDTH 6 0
BBX 6 12 0 0
BITMAP
025000
006000
000000
056700
030330
000240
000240
016740
170240
510240
600440
176581
ENDCHAR
STARTCHAR aacute
ENCODING 225
SWIDTH 315 0
DWIDTH 6 0
BBX 6 12 0 0
BITMAP
000700
004200
000000
056700
030330
000240
000240
016740
170240
510240
600440
176581
ENDCHAR
STARTCHAR acircumflex
ENCODING 226
SWIDTH 315 0
DWIDTH 6 0
BBX 6 12 0 0
BITMAP
007300
052610
000000
056700
030330
000240
000240
016740
170240
510240
600440
176581
ENDCHAR
STARTCHAR atilde
ENCODING 227
SWIDTH 315 0
DWIDTH 6 0
BBX 6 12 0 0
BITMAP
055130
032710
000000
056700
030330
000240
000240
016740
170240
510240
600440
176581
ENDCHAR
STARTCHAR adieresis
ENCODING 228
SWIDTH 315 0
DWIDTH 6 0
BBX 6 12 0 0
BITMAP
051600
041500
000000
056700
030330
000240
000240
016740
170240
510240
600440
176581
ENDCHAR
STARTCHAR aring
ENCODING 229
SWIDTH 315 0
DWIDTH 6 0
BBX 6 13 0 0
BITMAP
016400
042600
016400
000000
056700
030330
000240
000240
016740
170240
510240
600440
176581
ENDCHAR
STARTCHAR ae
ENCODING 230
SWIDTH 450 0
DWIDTH 8 0
BBX 8 9 0 0
BITMAP
05661660
13036033
00027006
00026006
01578554
17115000
60006000
50028014
17663671
ENDCHAR
STARTCHAR ccedilla
ENCODING 231
SWIDTH 275 0
DWIDTH 5 0
BBX 5 12 0 -3
BITMAP
036600
060240
150000
320000
420000
320000
150000
060240
038600
009400
000600
016400
ENDCHAR
STARTCHAR egrave
ENCODING 232
SWIDTH 285 0
DWIDTH 5 0
BBX 5 12 0 0
BITMAP
024000
006000
000000
036700
060240
140050
375550
420000
330000
150000
070150
036700
ENDCHAR
STARTCHAR eacute
ENCODING 233
SWIDTH 285 0
DWIDTH 5 0
BBX 5 12 0 0
BITMAP
000700
005200
000000
036700
060240
140050
375550
420000
330000
150000
070150
036700
ENDCHAR
STARTCHAR ecircumflex
ENCODING 234
SWIDTH 285 0
DWIDTH 5 0
BBX 5 12 0 0
BITMAP
008300
052610
000000
036700
060240
140050
375550
420000
330000
150000
070150
036700
ENDCHAR
STARTCHAR edieresis
ENCODING 235
SWIDTH 285 0
DWIDTH 5 0
BBX 5 12 0 0
BITMAP
050600
050500
000000
036700
060240
140050
375550
420000
330000
150000
070150
036700
ENDCHAR
STARTCHAR igrave
ENCODING 236
SWIDTH 141 0
DWIDTH 3 0
BBX 2 12 0 0
BITMAP
60
15
00
05
06
06
06
06
06
06
06
05
ENDCHAR
STARTCHAR iacute
ENCODING 237
SWIDTH 141 0
DWIDTH 3 0
BBX 2 12 1 0
BITMAP
33
60
00
50
60
60
60
60
60
60
60
50
ENDCHAR
STARTCHAR icircumflex
ENCODING 238
SWIDTH 141 0
DWIDTH 3 0
BBX 3 12 0 0
BITMAP
3800
6250
0010
0500
0600
0600
0600
0600
0600
0600
0600
0500
ENDCHAR
STARTCHAR idieresis
ENCODING 239
SWIDTH 141 0
DWIDTH 3 0
BBX 3 12 0 0
BITMAP
6050
5050
0000
0500
0600
0600
0600
0600
0600
0600
0600
0500
ENDCHAR
STARTCHAR eth
ENCODING 240
SWIDTH 319 0
DWIDTH 6 0
BBX 5 13 0 0
BITMAP
053000
007440
036800
000420
036570
060060
150060
320060
420060
320070
150060
060150
036700
ENDCHAR
STARTCHAR ntilde
ENCODING 241
SWIDTH 307 0
DWIDTH 6 0
BBX 4 12 1 0
BITMAP
5513
3271
0000
7663
8006
6006
6006
6006
6006
6006
6006
5005
ENDCHAR
STARTCHAR ograve
ENCODING 242
SWIDTH 309 0
DWIDTH 6 0
BBX 5 12 0 0
BITMAP
025000
006100
000000
036600
060140
150060
320060
420060
320060
150060
060140
036600
ENDCHAR
STARTCHAR oacute
ENCODING 243
SWIDTH 309 0
DWIDTH 6 0
BBX 5 12 0 0
BITMAP
000700
004200
000000
036600
060140
150060
320060
420060
320060
150060
060140
036600
ENDCHAR
STARTCHAR ocircumflex
ENCODING 244
SWIDTH 309 0
DWIDTH 6 0
BBX 5 12 0 0
BITMAP
007300
052610
000000
036600
060140
150060
320060
420060
320060
150060
060140
036600
ENDCHAR
STARTCHAR otilde
ENCODING 245
SWIDTH 309 0
DWIDTH 6 0
BBX 5 12 0 0
BITMAP
045030
032710
000000
036600
060140
150060
320060
420060
320060
150060
060140
036600
ENDCHAR
STARTCHAR odieresis
ENCODING 246
SWIDTH 309 0
DWIDTH 6 0
BBX 5 12 0 0
BITMAP
051600
041500
000000
036600
060140
150060
320060
420060
320060
150060
060140
036600
ENDCHAR
STARTCHAR divide
ENCODING 247
SWIDTH 577 0
DWIDTH 10 0
BBX 9 9 1 0
BITMAP
0000500000
0000400000
0000000000
0000000000
6666666620
0000000000
0000000000
0000400000
0000500000
ENDCHAR
STARTCHAR oslash
ENCODING 248
SWIDTH 309 0
DWIDTH 6 0
BBX 5 9 0 0
BITMAP
036660
060450
150660
321560
425160
336060
183060
090140
186600
ENDCHAR
STARTCHAR ugrave
ENCODING 249
SWIDTH 307 0
DWIDTH 6 0
BBX 5 12 0 0
BITMAP
025000
006000
000000
140050
140060
140060
140060
140060
140060
140060
150160
065650
ENDCHAR
STARTCHAR uacute
ENCODING 250
SWIDTH 307 0
DWIDTH 6 0
BBX 5 12 0 0
BITMAP
000700
004200
000000
140050
140060
140060
140060
140060
140060
140060
150160
065650
ENDCHAR
STARTCHAR ucircumflex
ENCODING 251
SWIDTH 307 0
DWIDTH 6 0
BBX 5 12 0 0
BITMAP
007300
052610
000000
140050
140060
140060
140060
140060
140060
140060
150160
065650
ENDCHAR
STARTCHAR udieresis
ENCODING 252
SWIDTH 307 0
DWIDTH 6 0
BBX 5 12 0 0
BITMAP
051600
041500
000000
140050
140060
140060
140060
140060
140060
140060
150160
065650
ENDCHAR
STARTCHAR yacute
ENCODING 253
SWIDTH 285 0
DWIDTH 5 0
BBX 5 16 0 -4
BITMAP
001600
006100
000000
500050
510060
240240
060510
060500
060500
042500
018200
00A000
006000
006000
023000
460000
ENDCHAR
STARTCHAR thorn
ENCODING 254
SWIDTH 299 0
DWIDTH 5 0
BBX 5 17 0 -4
BITMAP
050000
060000
060000
060000
395600
260230
060060
060060
060060
060060
060060
070240
096600
060000
060000
060000
050000
ENDCHAR
STARTCHAR ydieresis
ENCODING 255
SWIDTH 285 0
DWIDTH 5 0
BBX 5 16 0 -4
BITMAP
060600
050500
000000
500050
510060
240240
060510
060500
060500
042500
018200
00A000
006000
006000
023000
460000
ENDCHAR
STARTCHAR dotlessi
ENCODING 305
SWIDTH 141 0
DWIDTH 3 0
BBX 1 9 1 0
BITMAP
50
60
60
60
60
60
60
60
50
ENDCHAR
STARTCHAR OE
ENCODING 338
SWIDTH 505 0
DWIDTH 9 0
BBX 9 13 0 0
BITMAP
0056966620
0430600000
0600600000
1600600000
3300600000
4200666610
4200600000
4200600000
2400600000
0600600000
0600600000
0430600000
0056966620
ENDCHAR
STARTCHAR oe
ENCODING 339
SWIDTH 492 0
DWIDTH 9 0
BBX 9 9 0 0
BITMAP
0366056500
0601640510
1500A00230
3200855630
4200600000
3200900000
1500910000
0601450420
0366045500
ENDCHAR
STARTCHAR Wcircumflex
ENCODING 372
SWIDTH 534 0
DWIDTH 10 0
BBX 9 15 0 0
BITMAP
0000730000
0003250000
2300000050
2400000060
1500000060
0600000060
0600740060
0600660060
0600650060
0600740150
0600720240
0601570330
0606043420
0653006610
0540000900
ENDCHAR
STARTCHAR wcircumflex
ENCODING 373
SWIDTH 396 0
DWIDTH 7 0
BBX 7 12 0 0
BITMAP
00191000
00617000
00001000
50000050
50000060
42071060
33173150
24182240
050A0320
06293510
06707600
09100900
ENDCHAR
STARTCHAR Ycircumflex
ENCODING 374
SWIDTH 370 0
DWIDTH 7 0
BBX 7 15 0 0
BITMAP
00280000
00514000
60000150
42000600
06000600
06105200
01506000
00634000
00390000
00060000
00060000
00060000
00060000
00060000
00050000
ENDCHAR
STARTCHAR ycircumflex
ENCODING 375
SWIDTH 285 0
DWIDTH 5 0
BBX 5 16 0 -4
BITMAP
019100
061700
000100
500050
510060
240240
060510
060500
060500
042500
018200
00A000
006000
006000
023000
460000
ENDCHAR
STARTCHAR Ydieresis
ENCODING 376
SWIDTH 370 0
DWIDTH 7 0
BBX 7 16 0 0
BITMAP
00414000
00514000
00000000
60000150
42000600
06000600
06105200
01506000
00634000
00390000
00060000
00060000
00060000
00060000
00060000
00050000
ENDCHAR
STARTCHAR uni0237
ENCODING 567
SWIDTH 141 0
DWIDTH 3 0
BBX 4 13 -2 -4
BITMAP
0005
0006
0006
0006
0006
0006
0006
0006
0006
0006
0005
0033
2650
ENDCHAR
STARTCHAR circumflex
ENCODING 710
SWIDTH 280 0
DWIDTH 5 0
BBX 3 3 1 9
BITMAP
1910
7170
0010
ENDCHAR
STARTCHAR ring
ENCODING 730
SWIDTH 238 0
DWIDTH 4 0
BBX 3 3 1 10
BITMAP
5600
6420
5600
ENDCHAR
STARTCHAR tilde
ENCODING 732
SWIDTH 301 0
DWIDTH 5 0
BBX 4 2 1 10
BITMAP
5513
3271
ENDCHAR
STARTCHAR gravecomb
ENCODING 768
SWIDTH 0 0
DWIDTH 0 0
BBX 2 2 1 10
BITMAP
70
24
ENDCHAR
STARTCHAR acutecomb
ENCODING 769
SWIDTH 0 0
DWIDTH 0 0
BBX 2 2 1 10
BITMAP
24
60
ENDCHAR
STARTCHAR uni0302
ENCODING 770
SWIDTH 0 0
DWIDTH 0 0
BBX 3 3 1 9
BITMAP
1910
7170
0010
ENDCHAR
STARTCHAR tildecomb
ENCODING 771
SWIDTH 0 0
DWIDTH 0 0
BBX 4 2 1 10
BITMAP
5513
3271
ENDCHAR
STARTCHAR uni0307
ENCODING 775
SWIDTH 0 0
DWIDTH 0 0
BBX 1 2 1 10
BITMAP
60
50
ENDCHAR
STARTCHAR uni0308
ENCODING 776
SWIDTH 0 0
DWIDTH 0 0
BBX 3 2 1 10
BITMAP
6240
5230
ENDCHAR
STARTCHAR uni030A
ENCODING 778
SWIDTH 0 0
DWIDTH 0 0
BBX 3 3 1 10
BITMAP
5600
6420
5600
ENDCHAR
STARTCHAR uni0327
ENCODING 807
SWIDTH 0 0
DWIDTH 0 0
BBX 3 4 1 -3
BITMAP
1100
7600
0510
5600
ENDCHAR
STARTCHAR Wgrave
ENCODING 7808
SWIDTH 534 0
DWIDTH 10 0
BBX 9 16 0 0
BITMAP
0002400000
0000500000
0000000000
2300000050
2400000060
1500000060
0600000060
0600740060
0600660060
0600650060
0600740150
0600720240
0601570330
0606043420
0653006610
0540000900
ENDCHAR
STARTCHAR wgrave
ENCODING 7809
SWIDTH 396 0
DWIDTH 7 0
BBX 7 12 0 0
BITMAP
00420000
00060000
00000000
50000050
50000060
42071060
33173150
24182240
050A0320
06293510
06707600
09100900
ENDCHAR
STARTCHAR Wacute
ENCODING 7810
SWIDTH 534 0
DWIDTH 10 0
BBX 9 16 0 0
BITMAP
0000060000
0000130000
0000000000
2300000050
2400000060
1500000060
0600000060
0600740060
0600660060
0600650060
0600740150
0600720240
0601570330
0606043420
0653006610
0540000900
ENDCHAR
STARTCHAR wacute
ENCODING 7811
SWIDTH 396 0
DWIDTH 7 0
BBX 7 12 0 0
BITMAP
00016000
00060000
00000000
50000050
50000060
42071060
33173150
24182240
050A0320
06293510
06707600
09100900
ENDCHAR
STARTCHAR Wdieresis
ENCODING 7812
SWIDTH 534 0
DWIDTH 10 0
BBX 9 16 0 0
BITMAP
0002240000
0003250000
0000000000
2300000050
2400000060
1500000060
0600000060
0600740060
0600660060
0600650060
0600740150
0600720240
0601570330
0606043420
0653006610
0540000900
ENDCHAR
STARTCHAR wdieresis
ENCODING 7813
SWIDTH 396 0
DWIDTH 7 0
BBX 7 12 0 0
BITMAP
00606000
00505000
00000000
50000050
50000060
42071060
33173150
24182240
050A0320
06293510
06707600
09100900
ENDCHAR
STARTCHAR uni1E9E
ENCODING 7838
SWIDTH 375 0
DWIDTH 7 0
BBX 5 13 1 0
BITMAP
266500
600510
600140
600150
600230
646800
645530
600050
600060
600060
600060
600240
666500
ENDCHAR
STARTCHAR Ygrave
ENCODING 7922
SWIDTH 370 0
DWIDTH 7 0
BBX 7 16 0 0
BITMAP
00600000
00130000
00000000
60000150
42000600
06000600
06105200
01506000
00634000
00390000
00060000
00060000
00060000
00060000
00060000
00050000
ENDCHAR
STARTCHAR ygrave
ENCODING 7923
SWIDTH 285 0
DWIDTH 5 0
BBX 5 16 0 -4
BITMAP
042000
006000
000000
500050
510060
240240
060510
060500
060500
042500
018200
00A000
006000
006000
023000
460000
ENDCHAR
STARTCHAR endash
ENCODING 8211
SWIDTH 425 0
DWIDTH 8 0
BBX 7 1 0 4
BITMAP
16666650
ENDCHAR
STARTCHAR emdash
ENCODING 8212
SWIDTH 770 0
DWIDTH 14 0
BBX 13 1 0 4
BITMAP
16666666666660
ENDCHAR
STARTCHAR quoteleft
ENCODING 8216
SWIDTH 145 0
DWIDTH 3 0
BBX 2 4 0 9
BITMAP
07
15
14
02
ENDCHAR
STARTCHAR quoteright
ENCODING 8217
SWIDTH 145 0
DWIDTH 3 0
BBX 2 4 0 8
BITMAP
02
06
06
35
ENDCHAR
STARTCHAR quotesinglbase
ENCODING 8218
SWIDTH 145 0
DWIDTH 3 0
BBX 2 4 0 -2
BITMAP
02
06
06
43
ENDCHAR
STARTCHAR quotedblleft
ENCODING 8220
SWIDTH 219 0
DWIDTH 4 0
BBX 4 4 0 9
BITMAP
0752
1560
1460
0220
ENDCHAR
STARTCHAR quotedblright
ENCODING 8221
SWIDTH 219 0
DWIDTH 4 0
BBX 3 4 0 8
BITMAP
0220
0650
0650
3570
ENDCHAR
STARTCHAR quotedblbase
ENCODING 8222
SWIDTH 219 0
DWIDTH 4 0
BBX 3 4 0 -2
BITMAP
0220
0660
0660
4560
ENDCHAR
STARTCHAR bullet
ENCODING 8226
SWIDTH 355 0
DWIDTH 6 0
BBX 5 5 1 4
BITMAP
2DE700
CFFF20
DFFF40
7FFC10
056100
ENDCHAR
STARTCHAR ellipsis
ENCODING 8230
SWIDTH 651 0
DWIDTH 12 0
BBX 10 2 1 0
BITMAP
4000400013
5000410014
ENDCHAR
STARTCHAR guilsinglleft
ENCODING 8249
SWIDTH 263 0
DWIDTH 5 0
BBX 4 8 0 2
BITMAP
0002
0016
0070
0710
2600
0530
0061
0007
ENDCHAR
STARTCHAR guilsinglright
ENCODING 8250
SWIDTH 263 0
DWIDTH 5 0
BBX 4 8 0 0
BITMAP
1500
0440
0052
0008
0035
0160
0700
1100
ENDCHAR
STARTCHAR fraction
ENCODING 8260
SWIDTH 152 0
DWIDTH 3 0
BBX 7 13 -2 0
BITMAP
00000150
00000600
00001600
00005100
00006000
00051000
00060000
00420000
00600000
04200000
06000000
33000000
60000000
ENDCHAR
STARTCHAR uni2074
ENCODING 8308
SWIDTH 247 0
DWIDTH 4 0
BBX 4 6 0 7
BITMAP
0050
0420
0640
1560
4694
0050
ENDCHAR
STARTCHAR Euro
ENCODING 8364
SWIDTH 391 0
DWIDTH 7 0
BBX 7 13 0 0
BITMAP
00265620
00700000
05200000
06000000
06000000
49550000
06000000
49550000
06000000
06000000
05200000
00700000
00265620
ENDCHAR
STARTCHAR trademark
ENCODING 8482
SWIDTH 506 0
DWIDTH 9 0
BBX 9 6 0 6
BITMAP
9FF7840930
0420679730
0420639330
0420628330
042063B330
0320500230
ENDCHAR
STARTCHAR minus
ENCODING 8722
SWIDTH 557 0
DWIDTH 10 0
BBX 10 1 0 5
BITMAP
3DDDDDDDD3
ENDCHAR
STARTCHAR uni2215
ENCODING 8725
SWIDTH 259 0
DWIDTH 5 0
BBX 5 13 0 0
BITMAP
000050
000420
000600
000600
003300
006000
006000
033000
060000
060000
230000
600000
500000
ENDCHAR
STARTCHAR .notdef
ENCODING -1
SWIDTH 500 0
DWIDTH 9 0
BBX 9 16 0 -3
BITMAP
1EDDDDDE10
1C00000C10
1C00000C10
1C00000C10
1C00000C10
1C00000C10
1C00000C10
1C00000C10
1C00000C10
1C00000C10
1C00000C10
1C00000C10
1C00000C10
1C00000C10
1C00000C10
1EDDDDDE10
ENDCHAR
STARTCHAR NULL
ENCODING -1
SWIDTH 600 0
DWIDTH 11 0
BBX 1 1 0 0
BITMAP
00
ENDCHAR
STARTCHAR acutecomb.case
ENCODING -1
SWIDTH 0 0
DWIDTH 0 0
BBX 2 2 1 14
BITMAP
42
50
ENDCHAR
STARTCHAR uni0302.case
ENCODING -1
SWIDTH 0 0
DWIDTH 0 0
BBX 3 2 1 13
BITMAP
2800
5140
ENDCHAR
STARTCHAR uni0308.case
ENCODING -1
SWIDTH 0 0
DWIDTH 0 0
BBX 3 2 1 14
BITMAP
4410
5410
ENDCHAR
STARTCHAR uni0307.case
ENCODING -1
SWIDTH 0 0
DWIDTH 0 0
BBX 1 2 1 14
BITMAP
40
50
ENDCHAR
STARTCHAR gravecomb.case
ENCODING -1
SWIDTH 0 0
DWIDTH 0 0
BBX 2 2 1 14
BITMAP
60
22
ENDCHAR
STARTCHAR uni030A.case
ENCODING -1
SWIDTH 0 0
DWIDTH 0 0
BBX 2 3 1 13
BITMAP
55
65
55
ENDCHAR
STARTCHAR tildecomb.case
ENCODING -1
SWIDTH 0 0
DWIDTH 0 0
BBX 4 2 1 14
BITMAP
5421
3360
ENDCHAR
ENDFONT
